# xmcd CD database file
#
# Track frame offsets:
#	150
#	16355
#	33595
#	48375
#	63723
#	78258
#	94378
#	114223
#	133578
#	158305
#	178663
#	196930
#	213832
#	237134
#
# Disc length: 3414 seconds
#
# Revision: 0
# Processed by: cddbd v1.5.1PL0 Copyright (c) Steve Scherf et al.
# Submitted via: CDex 1.51
#
DISCID=b00d540e
DTITLE=Various Artist - JALECOゲーム曲集
DYEAR=1998
DGENRE=Pop
TTITLE0=It's A World Birthday
TTITLE1=あなたへのPower And Love
TTITLE2=はじめの一歩は私から
TTITLE3=それいけ！あいうえOh My God〜涙は風に〜
TTITLE4=ハイパー肉球みゃーみゃ
TTITLE5=君のくちびるのFortune
TTITLE6=Change Me Now
TTITLE7=微笑みの再見（ツァイチェン）
TTITLE8=To Your Dream-The Game Paradise
TTITLE9=Memorial Day
TTITLE10=天使の羽根で
TTITLE11=E-Thai-Hau-Die!!
TTITLE12=Lovely Star
TTITLE13=カラ元気じゃないよ
EXTD=YEAR: 1998
EXTT0=
EXTT1=
EXTT2=
EXTT3=
EXTT4=
EXTT5=
EXTT6=
EXTT7=
EXTT8=
EXTT9=
EXTT10=
EXTT11=
EXTT12=
EXTT13=
PLAYORDER=
